<?xml version="1.0" encoding="utf-8"?>
<svg id="Lager_1" data-name="Lager 1" xmlns="http://www.w3.org/2000/svg" viewBox="0 0 225.04 30"><path d="M433.9,268.8v7.93h-5.45V251.17h10.9c5.9,0,10.15,3.46,10.15,8.79a8.3427,8.3427,0,0,1-5.34,7.93l6.99,8.83h-6.54l-6.28-7.93H433.9Zm5.26-5c2.74,0,4.96-1.5,4.96-3.83,0-2.37-2.22-3.83-4.96-3.83H433.9v7.67h5.26Z" transform="translate(-307.28 -250.65)"/><path d="M529.13,254.08v.7h-.48v-2.26h.96a.8087.8087,0,0,1,.9.78.7293.7293,0,0,1-.47.7l.62.78h-.58l-.56-.7Zm.47-.44c.24,0,.44-.13.44-.34s-.2-.34-.44-.34h-.47v.68Z" transform="translate(-307.28 -250.65)"/><path d="M529.58,256.44a2.74,2.74,0,1,1,2.74-2.74A2.7442,2.7442,0,0,1,529.58,256.44Zm0-5.11a2.37,2.37,0,1,0,2.37,2.37A2.3686,2.3686,0,0,0,529.58,251.33Z" transform="translate(-307.28 -250.65)"/><path d="M464.23,261.66h9.27v4.92h-9.27v5.22h13.49v4.92H458.78V251.16h18.27v4.92H464.23v5.58Z" transform="translate(-307.28 -250.65)"/><path d="M492.2,261.66h9.27v4.92H492.2v5.22h13.49v4.92H486.75V251.16h18.27v4.92H492.2Z" transform="translate(-307.28 -250.65)"/><path d="M532.16,276.73H514.34V251.17h5.45v20.71h12.37Z" transform="translate(-307.28 -250.65)"/><path d="M390.27,276.73H372.45V251.17h5.45v20.71h12.37Z" transform="translate(-307.28 -250.65)"/><path d="M421.72,263.95a13.36,13.36,0,1,1-13.38-13.3A13.2484,13.2484,0,0,1,421.72,263.95Zm-5.53,0a7.8635,7.8635,0,1,0-7.85,8.23A7.9386,7.9386,0,0,0,416.19,263.95Z" transform="translate(-307.28 -250.65)"/><path d="M366.21,263.95a13.36,13.36,0,1,1-13.38-13.3A13.2484,13.2484,0,0,1,366.21,263.95Zm-5.53,0a7.8683,7.8683,0,1,0-7.86,8.23A7.9405,7.9405,0,0,0,360.68,263.95Z" transform="translate(-307.28 -250.65)"/><path d="M320.62,272.18a8.2387,8.2387,0,0,1,0-16.46,7.7529,7.7529,0,0,1,7.41,5.43h5.68a13.3,13.3,0,1,0,0,5.6h-5.68A7.7312,7.7312,0,0,1,320.62,272.18Z" transform="translate(-307.28 -250.65)"/></svg>