<svg xmlns="http://www.w3.org/2000/svg" xmlns:xlink="http://www.w3.org/1999/xlink" width="122.439" height="45.786" viewBox="0 0 122.439 45.786"><defs><clipPath id="clip-path"><rect id="Rectangle_2151" data-name="Rectangle 2151" width="122.439" height="45.786"></rect></clipPath></defs><g id="Flintab_logo_CMYK" data-name="Flintab logo_CMYK" transform="translate(-90 -322.6)"><g id="Group_1588" data-name="Group 1588" transform="translate(90 322.6)"><g id="Group_1587" data-name="Group 1587" clip-path="url(#clip-path)"><path id="Path_278" data-name="Path 278" d="M212.439,438.065V433.2H90v4.865h56.429a5.343,5.343,0,0,1,9.552,0Z" transform="translate(-90 -400.593)" fill="#bc101a"></path></g></g><path id="Path_279" data-name="Path 279" d="M244.136,322.6h-.324v14.918L238.476,322.6H231.4v30.1h7.488V337.606l5.248,15.095H251.3V322.6Z" transform="translate(-99.712)" fill="#bc101a"></path><path id="Path_280" data-name="Path 280" d="M90,322.6v30.1h7.282V341.174h6.663v-6.692H97.282v-4.776h6.633V322.6Z" transform="translate(0)" fill="#bc101a"></path><path id="Path_281" data-name="Path 281" d="M145,322.6v30.1h13.8v-6.692h-6.516V322.6Z" transform="translate(-38.785)" fill="#bc101a"></path><rect id="Rectangle_2152" data-name="Rectangle 2152" width="7.282" height="30.101" transform="translate(121.9 322.6)" fill="#bc101a"></rect><path id="Path_282" data-name="Path 282" d="M306,322.6v6.928h5.1V352.7h6.869V329.528h5.277V322.6Z" transform="translate(-152.319)" fill="#bc101a"></path><g id="Group_1594" data-name="Group 1594" transform="translate(90 322.6)"><g id="Group_1589" data-name="Group 1589" clip-path="url(#clip-path)"><path id="Path_283" data-name="Path 283" d="M377.4,352.7l-6.368-30.1h-8.638L355.2,352.7h7.724l.678-3.862h5.454l.59,3.862Zm-12.766-10.26,1.12-6.987c.147-.943.295-1.887.413-2.83l.354-2.83h.088c.088.943.206,1.887.295,2.83s.206,1.887.324,2.83l.884,6.987Z" transform="translate(-277.013 -322.6)" fill="#bc101a"></path></g><g id="Group_1590" data-name="Group 1590" clip-path="url(#clip-path)"><path id="Path_284" data-name="Path 284" d="M438.3,352.767h10.289a10.805,10.805,0,0,0,5.69-1.386,7.672,7.672,0,0,0,2.948-3.3,9.26,9.26,0,0,0,.855-3.862,7.032,7.032,0,0,0-1.563-4.806,6.5,6.5,0,0,0-4.54-2.034v-.088a5.347,5.347,0,0,0,4.1-1.739,6.368,6.368,0,0,0,1.533-4.275,8.08,8.08,0,0,0-1.622-5.13,8.457,8.457,0,0,0-3.921-2.683,14.139,14.139,0,0,0-4.806-.767h-8.933v30.072Zm7.488-6.516v-5.779h.649a3.969,3.969,0,0,1,2.418.678,2.912,2.912,0,0,1-.029,4.422,3.922,3.922,0,0,1-2.359.708h-.678Zm0-11.881v-5.189h.8a3.393,3.393,0,0,1,2.093.619,2.413,2.413,0,0,1,.825,1.946,2.378,2.378,0,0,1-.973,2.064,3.977,3.977,0,0,1-2.241.59h-.5Z" transform="translate(-335.614 -322.665)" fill="#bc101a"></path></g><g id="Group_1591" data-name="Group 1591" clip-path="url(#clip-path)"><path id="Path_285" data-name="Path 285" d="M291.134,446.747A4.717,4.717,0,1,1,286.417,442a4.737,4.737,0,0,1,4.717,4.747" transform="translate(-225.183 -406.798)" fill="#bc101a"></path></g><g id="Group_1592" data-name="Group 1592" clip-path="url(#clip-path)"><path id="Path_286" data-name="Path 286" d="M154.326,464.325h.914v1l-.059.03a3.414,3.414,0,0,1-.973.177,1.89,1.89,0,0,1-1.386-.531,1.8,1.8,0,0,1-.531-1.327,1.848,1.848,0,0,1,.531-1.327,1.8,1.8,0,0,1,1.327-.531,3.542,3.542,0,0,1,1.71.5v-.708a9.057,9.057,0,0,0-.914-.324,3.212,3.212,0,0,0-.767-.088,2.607,2.607,0,0,0-1.857.708,2.491,2.491,0,0,0-.029,3.508,2.581,2.581,0,0,0,1.887.708,4.257,4.257,0,0,0,1.769-.383v-2.034h-1.622ZM148.99,465l-3.243-3.715h-.56v4.806h.649v-3.685l3.214,3.685h.59v-4.806h-.649Zm-6.6,1.061h.678v-4.806h-.678Zm-2.8-2.712H136.9v-2.064h-.678v4.806h.678V464h2.683v2.093h.678v-4.806h-.678Zm-7.046.973h.914v1l-.059.03a3.414,3.414,0,0,1-.973.177,1.89,1.89,0,0,1-1.386-.531,1.8,1.8,0,0,1-.531-1.327,1.848,1.848,0,0,1,.531-1.327,1.8,1.8,0,0,1,1.327-.531,3.542,3.542,0,0,1,1.71.5v-.708a9.057,9.057,0,0,0-.914-.324,3.212,3.212,0,0,0-.767-.088,2.607,2.607,0,0,0-1.857.708,2.491,2.491,0,0,0-.029,3.508,2.6,2.6,0,0,0,1.916.708,4.257,4.257,0,0,0,1.769-.383v-2.034h-1.621v.619Zm-5.4,1.739h.678v-4.806h-.678Zm-4.57,0h2.771v-.619h-2.093v-1.474h1.975v-.619h-1.975v-1.474h2.034v-.619h-2.712Zm-3.567-1.474-1.327-3.3h-.649l-1.327,3.3-1.327-3.3H113.7l1.916,4.806h.147l1.592-3.892,1.563,3.892h.147l1.946-4.806h-.678Z" transform="translate(-106.713 -420.338)"></path></g><g id="Group_1593" data-name="Group 1593" clip-path="url(#clip-path)"><path id="Path_287" data-name="Path 287" d="M377.437,464.815a.53.53,0,0,1-.206.442.823.823,0,0,1-.531.177,1.672,1.672,0,0,1-1.3-.708v.884a2.093,2.093,0,0,0,1.3.442,1.436,1.436,0,0,0,1-.354,1.2,1.2,0,0,0,.383-.943,1.541,1.541,0,0,0-.884-1.327l-.531-.324a1.968,1.968,0,0,1-.5-.383.552.552,0,0,1-.147-.413.478.478,0,0,1,.206-.413.841.841,0,0,1,.56-.147,1.681,1.681,0,0,1,1.12.5v-.767a1.823,1.823,0,0,0-1.091-.324,1.513,1.513,0,0,0-1.032.354,1.141,1.141,0,0,0-.383.914,1.088,1.088,0,0,0,.206.678,2.488,2.488,0,0,0,.708.59l.531.324c.383.236.59.5.59.8m-4.54.118-3.243-3.715h-.56v4.776h.649v-3.685l3.214,3.685h.59v-4.776H372.9Zm-6.958-2.624a1.715,1.715,0,0,1,.531,1.268,1.734,1.734,0,0,1-.531,1.3,1.8,1.8,0,0,1-1.327.531,1.9,1.9,0,0,1-1.327-.5,1.734,1.734,0,0,1-.531-1.3,1.77,1.77,0,0,1,1.887-1.828,1.906,1.906,0,0,1,1.3.531m-3.184-.472a2.425,2.425,0,0,0-.737,1.769,2.333,2.333,0,0,0,.708,1.739,2.468,2.468,0,0,0,1.8.708,2.629,2.629,0,0,0,1.887-.708,2.491,2.491,0,0,0,0-3.538,2.673,2.673,0,0,0-3.656.029m-3.3,4.157h.678v-4.806h-.678Zm-5.72-4.186h1.651v4.186h.678v-4.186h1.68v-.619h-4.01Zm-2.3,2.123a2.429,2.429,0,0,1-.088.8.977.977,0,0,1-.295.413,1.572,1.572,0,0,1-1,.324,1.821,1.821,0,0,1-.737-.147,1.294,1.294,0,0,1-.472-.413,2.3,2.3,0,0,1-.147-.943v-2.712h-.678v2.712a3,3,0,0,0,.088.855,2.28,2.28,0,0,0,.206.472,1.545,1.545,0,0,0,.295.324,2.255,2.255,0,0,0,1.5.5,2.123,2.123,0,0,0,1.474-.5,1.544,1.544,0,0,0,.295-.324,1.747,1.747,0,0,0,.206-.472,2.91,2.91,0,0,0,.088-.826v-2.712h-.678v2.653Zm-7.813,2.064h2.83v-.619H344.3v-4.157h-.678Zm-3.155-3.685a1.714,1.714,0,0,1,.531,1.268,1.734,1.734,0,0,1-.531,1.3,1.8,1.8,0,0,1-1.327.531,1.9,1.9,0,0,1-1.327-.5,1.734,1.734,0,0,1-.531-1.3,1.77,1.77,0,0,1,1.887-1.828,1.906,1.906,0,0,1,1.3.531m-3.184-.472a2.425,2.425,0,0,0-.737,1.769,2.334,2.334,0,0,0,.708,1.739,2.468,2.468,0,0,0,1.8.708,2.629,2.629,0,0,0,1.887-.708,2.491,2.491,0,0,0,0-3.538,2.607,2.607,0,0,0-1.857-.708,2.674,2.674,0,0,0-1.8.737m-2.948,2.978a.53.53,0,0,1-.206.442.823.823,0,0,1-.531.177,1.63,1.63,0,0,1-1.3-.708v.884a2.093,2.093,0,0,0,1.3.442,1.436,1.436,0,0,0,1-.354,1.2,1.2,0,0,0,.383-.943,1.541,1.541,0,0,0-.884-1.327l-.531-.324a1.969,1.969,0,0,1-.5-.383.552.552,0,0,1-.147-.413.478.478,0,0,1,.206-.413.84.84,0,0,1,.56-.147,1.625,1.625,0,0,1,1.12.5v-.767a1.823,1.823,0,0,0-1.091-.324,1.512,1.512,0,0,0-1.032.354,1.141,1.141,0,0,0-.383.914,1.088,1.088,0,0,0,.206.678,2.488,2.488,0,0,0,.708.59l.531.324c.383.236.59.5.59.8" transform="translate(-260.865 -420.267)"></path></g></g></g></svg>