<?xml version="1.0" encoding="utf-8"?>
<!-- Generator: Adobe Illustrator 23.1.1, SVG Export Plug-In . SVG Version: 6.00 Build 0)  -->
<svg version="1.1" id="Layer_1" xmlns="http://www.w3.org/2000/svg" xmlns:xlink="http://www.w3.org/1999/xlink" x="0px" y="0px"
	 viewBox="0 0 158.5 53.7" style="enable-background:new 0 0 158.5 53.7;" xml:space="preserve">
<style type="text/css">
	.st0{fill:#C5C6CB;}
	.st1{fill:#DDDDDF;}
	.st2{fill:#B2B3B8;}
	.st3{fill:#9C9DA2;}
	.st4{fill:#89898E;}
	.st5{fill:#737277;}
</style>
<g>
	<path d="M68.5,5.8 M68.5,25.5L85.9,5.8h6.2L74.2,25.6l18.7,22.5h-6.6L68.5,26.1"/>
	<path d="M118.4,36.8c0,3.8-1.2,6.8-3.5,8.9c-2.3,2.2-5.6,3.2-9.7,3.2c-2.8,0-5.3-0.6-7.4-1.9c-2.1-1.2-3.6-3-4.6-5.3l3.6-3.3
		c0.6,1.7,1.7,3.1,3.3,4c1.5,1,3.3,1.5,5.3,1.5c2.5,0,4.4-0.6,5.7-1.8c1.3-1.2,2-2.9,2-5.2c0-1.8-0.7-3.5-2-4.9
		c-1.3-1.4-3.6-2.9-6.7-4.4c-3.6-1.8-6.2-3.7-7.7-5.4c-1.5-1.8-2.2-4-2.2-6.7c0-3.2,1.1-5.8,3.2-7.7c2.2-2,5-2.9,8.6-2.9
		c2.2,0,4.1,0.4,5.8,1.3c1.7,0.8,3,2.1,4.1,3.8l-3.5,3.4c-0.6-1.1-1.5-2-2.7-2.6c-1.2-0.6-2.5-0.9-3.9-0.9c-2,0-3.5,0.5-4.7,1.5
		c-1.1,1-1.7,2.3-1.7,4c0,1.5,0.5,2.9,1.4,4c0.9,1.1,2.8,2.4,5.5,3.9c4.8,2.6,8,4.9,9.5,6.8C117.6,31.9,118.4,34.1,118.4,36.8z"/>
	<path d="M153.8,32.2c0,5.6-1.2,9.8-3.7,12.6C147.7,47.6,144,49,139,49c-4.9,0-8.7-1.4-11.1-4.2c-2.5-2.8-3.7-7-3.7-12.6V5.8h5.3
		v27.4c0,3.6,0.8,6.3,2.4,8.1c1.6,1.8,4,2.7,7.2,2.7c3.2,0,5.6-0.9,7.2-2.7c1.6-1.8,2.3-4.5,2.3-8.1V5.8h5.3V32.2z"/>
</g>
<rect x="14.6" y="5.7" class="st0" width="5.3" height="42.3"/>
<rect x="5.4" y="5.7" class="st1" width="5.3" height="42.3"/>
<rect x="23.8" y="5.7" class="st2" width="5.3" height="42.3"/>
<rect x="33.1" y="5.7" class="st3" width="5.3" height="42.3"/>
<rect x="42.2" y="5.7" class="st4" width="5.3" height="42.3"/>
<rect x="51.9" y="5.7" class="st5" width="5.3" height="42.3"/>
<rect x="61.2" y="5.7" width="5.3" height="42.3"/>
</svg>
